Coordinates
version=1
nRows=7
nColumns=40
inDegrees=yes

Units are S.I. units (second, meters, Newtons, ...)
Angles are in degrees.

endheader
time	pelvis_tilt	pelvis_list	pelvis_rotation	pelvis_tx	pelvis_ty	pelvis_tz	hip_flexion_r	hip_adduction_r	hip_rotation_r	knee_angle_r	knee_angle_r_beta	ankle_angle_r	subtalar_angle_r	mtp_angle_r	hip_flexion_l	hip_adduction_l	hip_rotation_l	knee_angle_l	knee_angle_l_beta	ankle_angle_l	subtalar_angle_l	mtp_angle_l	lumbar_extension	lumbar_bending	lumbar_rotation	arm_flex_r	arm_add_r	arm_rot_r	elbow_flex_r	pro_sup_r	wrist_flex_r	wrist_dev_r	arm_flex_l	arm_add_l	arm_rot_l	elbow_flex_l	pro_sup_l	wrist_flex_l	wrist_dev_l
      0.62000000	     -4.34072232	      3.24217849	     -3.84689602	     -0.21807960	      0.94983685	     -1.42342371	     -1.41375674	     -0.12381028	    -14.46151934	    -13.62283506	     -0.23776333	     12.17514775	      0.70876325	     -4.78702380	     26.61889601	      4.84380351	     21.28950413	    -18.62598230	     -0.32508472	      3.33974197	     12.41598954	     13.81909570	      0.74760583	     -3.98345095	      7.11638526	      6.02445415	    -14.21985096	     -7.25225830	     37.26302838	     89.95437384	      0.00000000	      0.00000000	    -13.30639864	      9.21055994	      8.77457620	     15.64368543	     89.95437384	      0.00000000	      0.00000000
      0.63000000	     -3.93469990	      3.28908618	     -4.60594945	     -0.20514451	      0.94813702	     -1.42400892	     -2.83404523	     -0.44182239	    -14.66599005	    -13.31355941	     -0.23236545	     12.69429585	      1.47403235	     -5.74118658	     26.26767027	      4.99754320	     22.90217401	    -15.95592249	     -0.27848338	      2.94217667	     10.84158111	     13.77942189	      0.38567120	     -3.92365592	      7.78683426	      6.49100280	    -14.94970904	     -6.15240538	     38.81831157	     89.95437384	      0.00000000	      0.00000000	    -14.14356344	      8.76159400	      8.91956828	     14.23404604	     89.95437384	      0.00000000	      0.00000000
      0.64000000	     -3.54319669	      3.28787705	     -5.17611064	     -0.19170371	      0.94621987	     -1.42488878	     -4.18246113	     -0.90939653	    -15.95740771	    -13.12701305	     -0.22910960	     11.44875177	      3.44169511	    -16.52438647	     25.97962636	      5.22671582	     25.05353401	    -13.60288337	     -0.23741510	      1.68042784	      7.97474458	      8.77676113	      0.07686179	     -3.82503026	      8.24076983	      6.88232457	    -15.47487955	     -5.63710425	     40.34237781	     89.95437384	      0.00000000	      0.00000000	    -15.19927009	      8.39087844	      8.88247114	     13.16639847	     89.95437384	      0.00000000	      0.00000000
      0.65000000	     -3.39668167	      3.19368218	     -5.77974028	     -0.17873225	      0.94402198	     -1.42570381	     -5.25157674	     -1.12005945	    -16.34524519	    -13.02704499	     -0.22736483	     11.85794880	      4.28823309	    -16.76147703	     25.96977198	      5.48299328	     26.46833818	    -11.48719056	     -0.20048930	      1.23647242	      5.37358976	      8.58525356	     -0.00281499	     -3.58636344	      8.77005089	      7.27717397	    -15.97249679	     -5.37912371	     41.76749062	     89.95437384	      0.00000000	      0.00000000	    -16.15183998	      8.04961179	      8.66146791	     12.09673164	     89.95437384	      0.00000000	      0.00000000
      0.66000000	     -3.61877543	      2.99884505	     -6.11213639	     -0.16639436	      0.94128791	     -1.42702298	     -5.88241917	     -1.13757727	    -16.70321034	    -12.99068267	     -0.22673018	     12.17909216	      4.70779117	    -16.90853956	     26.50489115	      5.66858596	     26.82981538	     -9.68990363	     -0.16912072	      0.96290143	      3.69522852	      8.57481479	      0.21998201	     -3.19235380	      9.09409873	      7.57540660	    -16.49824739	     -5.11076356	     43.25232574	     89.95437384	      0.00000000	      0.00000000	    -16.93296152	      7.68388470	      8.46683110	     10.94825988	     89.95437384	      0.00000000	      0.00000000
      0.67000000	     -3.12961561	      3.15755051	     -6.77813571	     -0.15236206	      0.93960316	     -1.42795219	     -7.33997352	     -1.85924622	    -17.88334115	    -12.96394876	     -0.22626359	     12.60491488	      6.97752709	    -17.34454519	     26.10194569	      5.79583307	     29.36029346	     -8.32611187	     -0.14531807	      0.40826593	     -0.36556083	      8.12651183	     -0.11644128	     -3.26651319	      9.72779216	      7.81566772	    -16.91201073	     -5.03584307	     44.53711310	     89.95437384	      0.00000000	      0.00000000	    -17.92957475	      7.49049949	      7.42683676	     10.18308953	     89.95437384	      0.00000000	      0.00000000
      0.68000000	     -3.05040979	      3.15476668	     -7.26726822	     -0.13873779	      0.93744431	     -1.42910403	     -8.30882023	     -2.29174999	    -18.58985365	    -12.99907936	     -0.22687673	     12.83651271	      8.31892585	    -17.75583549	     26.11970685	      5.88060529	     30.11399137	     -7.06119380	     -0.12324108	     -0.07527820	     -2.23534815	      7.67879545	     -0.04348757	     -3.10381466	     10.24634432	      7.85988419	    -17.33404782	     -5.06970817	     45.95498041	     89.95437384	      0.00000000	      0.00000000	    -18.82067028	      7.32911660	      6.17139327	      9.34601946	     89.95437384	      0.00000000	      0.00000000
